<svg xmlns="http://www.w3.org/2000/svg" xmlns:xlink="http://www.w3.org/1999/xlink" width="500" zoomAndPan="magnify" viewBox="0 0 375 374.999991" height="500" preserveAspectRatio="xMidYMid meet" version="1.0"><defs><g/><clipPath id="c1fa09943c"><path d="M 18.734375 15.128906 L 356.445312 15.128906 L 356.445312 360 L 18.734375 360 Z M 18.734375 15.128906 " clip-rule="nonzero"/></clipPath><clipPath id="fbae4ac8a3"><path d="M 35.984375 15.128906 L 339.015625 15.128906 C 343.589844 15.128906 347.976562 16.945312 351.210938 20.179688 C 354.445312 23.414062 356.265625 27.804688 356.265625 32.378906 L 356.265625 342.621094 C 356.265625 347.195312 354.445312 351.585938 351.210938 354.820312 C 347.976562 358.054688 343.589844 359.871094 339.015625 359.871094 L 35.984375 359.871094 C 31.410156 359.871094 27.023438 358.054688 23.789062 354.820312 C 20.554688 351.585938 18.734375 347.195312 18.734375 342.621094 L 18.734375 32.378906 C 18.734375 27.804688 20.554688 23.414062 23.789062 20.179688 C 27.023438 16.945312 31.410156 15.128906 35.984375 15.128906 " clip-rule="nonzero"/></clipPath></defs><g clip-path="url(#c1fa09943c)"><g clip-path="url(#fbae4ac8a3)"><path fill="#22292d" d="M 18.734375 15.128906 L 356.445312 15.128906 L 356.445312 359.683594 L 18.734375 359.683594 Z M 18.734375 15.128906 " fill-opacity="1" fill-rule="nonzero"/></g></g><g fill="#d9d9d9" fill-opacity="1"><g transform="translate(65.611517, 309.192336)"><g><path d="M 18.03125 0 L 18.03125 -238.3125 L 75.640625 -238.3125 L 75.640625 -142.671875 L 169.546875 -142.671875 L 169.546875 -238.3125 L 227.03125 -238.3125 L 227.03125 0 L 169.546875 0 L 169.546875 -95.765625 L 75.640625 -95.765625 L 75.640625 0 Z M 18.03125 0 "/></g></g></g></svg>